# xmcd CD database file
# Copyright (C) 1996 Ti Kan
#
# Track frame offsets:
# 	182
# 	8795
# 	25955
# 	39835
# 	56862
# 	72752
# 	90377
# 	106950
# 	122775
# 	137970
# 	155440
# 	165182
#
# Disc length: 2473 seconds
#
# Revision: 1
# Processed by: cddbd v1.4b41PL1 Copyright (c) Steve Scherf et al.
# Submitted via: DiscPlay 3.4.1
#
DISCID=9109a70c
DTITLE=Jeff and Janet - jesus built a ship to sing a song to
DYEAR=1900
DGENRE=
TTITLE0=Brand new heartache
TTITLE1=You don't miss your water (til your well runs dry)
TTITLE2=She
TTITLE3=Sin City
TTITLE4=Hearts on fire
TTITLE5=Luxury Liner
TTITLE6=Return of the grievous angel
TTITLE7=Love hurts
TTITLE8=Hickory wind
TTITLE9=Do right woman
TTITLE10=You're still on my mind
TTITLE11=Hot Burrito #1
EXTD=
EXTT0=
EXTT1=
EXTT2=
EXTT3=
EXTT4=
EXTT5=
EXTT6=
EXTT7=
EXTT8=
EXTT9=
EXTT10=
EXTT11=
PLAYORDER=
